<svg xmlns="http://www.w3.org/2000/svg" width="132.817" height="37.828" viewBox="0 0 132.817 37.828">
  <g id="领航保logo" transform="translate(-47.415 -229.238)">
    <g id="组_710" data-name="组 710" transform="translate(47.415 229.238)">
      <g id="组_709" data-name="组 709">
        <path id="路径_3092" data-name="路径 3092" d="M66.329,229.238a18.914,18.914,0,1,1-4.294,37.337c6.009.257,9.592-2.324,11.5-6.163a14.222,14.222,0,1,0-19.032-4.355c1.084,1.617,3.036,3.979,5.233,3.429.887-.225,1.589-1.014,1.684-2.691a7.85,7.85,0,0,0-.134-1.982c-.677-3.667-3.475-7.681-4.382-8.979L62.041,240c4.712,9.464,4.78,15.106,3.875,18.276a8.48,8.48,0,0,1-2.842,4.381,6.745,6.745,0,0,1-4.237,1.483,9.588,9.588,0,0,1-6.614-3.387,18.912,18.912,0,0,1,14.106-31.512Z" transform="translate(-47.415 -229.238)" fill="#dc000c" fill-rule="evenodd"/>
        <path id="路径_3093" data-name="路径 3093" d="M77.519,251.324c4.452,12.249,1.013,19.773-6.737,21.615,16.618,1.585,16.047-17.242,12.106-27.4Z" transform="translate(-57.902 -236.553)" fill="#dc000c" fill-rule="evenodd"/>
      </g>
    </g>
    <g id="组_711" data-name="组 711" transform="translate(92.393 233.181)">
      <path id="路径_3094" data-name="路径 3094" d="M141.226,245.655a13.607,13.607,0,0,1-6.107-4.985,14.477,14.477,0,0,1-1.809,2.3h2.827a17.4,17.4,0,0,1,1.131,3.547h3.393v2.3A19.107,19.107,0,0,1,137.269,254a5.53,5.53,0,0,1,.679.383,18.383,18.383,0,0,1,1.809,1.151v3.355a47.083,47.083,0,0,0-9.386-4.793V251.6a40.754,40.754,0,0,1,4.071,1.246,25.774,25.774,0,0,0,2.262-4.123h-6.9v-2.2h4.184a13.526,13.526,0,0,0-.792-3.451,13.327,13.327,0,0,1-4.184,2.684v-2.3a12.947,12.947,0,0,0,4.41-6.711h3.506a15.673,15.673,0,0,0,4.3,6.711Zm-.339-5.944v-2.2h14.589v2.2h-5.428a8.739,8.739,0,0,0-.226,1.15,3.469,3.469,0,0,0-.226.959h5.089v11.312h-3.393v-9.107h-6.333v9.107h-3.393V241.821h4.071a8.963,8.963,0,0,0,.452-2.11Zm0,18.982v-2.109q5.879-2.013,5.541-6.806v-4.6h3.393v4.6q-.228,4.7,5.541,6.806v2.109q-5.2-1.247-7.124-3.739Q146.2,257.446,140.887,258.693Z" transform="translate(-129.013 -236.548)" fill="#1a1311"/>
      <path id="路径_3095" data-name="路径 3095" d="M185.1,248.28v-2.2h1.244v-7.861h2.488a18.7,18.7,0,0,0,.679-1.821h3.619a8.772,8.772,0,0,1-.453,1.438c-.076.128-.152.256-.226.383h3.619v17.352q.11,2.78-3.28,2.684H190.75V256.14h1.018q1.244,0,1.131-.959v-6.9h-3.392v2.2q.451,5.848-4.411,8.245v-2.3q1.358-1.629,1.244-5.465V248.28Zm4.411-7.957v5.752H192.9v-5.752Zm.9,4.7a14.754,14.754,0,0,0-.792-3.547h2.036a9.324,9.324,0,0,1,.9,3.547Zm0,8.245a13.777,13.777,0,0,0-.792-3.738h2.149a10.966,10.966,0,0,1,.9,3.738Zm6.107,5.369V256.14q1.807-2.3,1.7-8.34v-4.506H208.28v11.7c0,.512.226.767.679.767q.79.1.679-.767v-.959h2.149v1.438q.112,2.4-2.827,2.3h-1.471q-2.941,0-2.94-2.588V245.6h-2.6V247.7a15.6,15.6,0,0,1-1.131,6.806A10.867,10.867,0,0,1,196.518,258.633Zm.226-17.831v-2.3h4.524v-2.013h4.523V238.5h4.75v2.3Z" transform="translate(-154.182 -236.392)" fill="#1a1311"/>
      <path id="路径_3096" data-name="路径 3096" d="M240.359,246.057v-2.109q3.278-1.821,4.41-7.382h3.958a21.229,21.229,0,0,1-1.923,5.464v16.489h-3.958V245.29a13.606,13.606,0,0,1-1.47.48Zm9.047-.48v-8.34h15.833v4.793q.111,3.645-4.184,3.547h-1.809V247.3h7.576v2.4h-3.166a8.291,8.291,0,0,0,3.053,5.656v2.109q-6.335-2.2-6.559-7.764h-.9v8.819h-4.072V249.7h-.9q-.454,5.56-6.559,7.764v-2.109a7.88,7.88,0,0,0,2.94-5.656h-3.167v-2.4h7.69v-1.725Zm3.845-2.4h6.559q1.583.1,1.47-1.342v-2.3h-8.029Z" transform="translate(-178.983 -236.47)" fill="#1a1311"/>
    </g>
    <g id="组_712" data-name="组 712" transform="translate(94.347 258.364)">
      <path id="路径_3097" data-name="路径 3097" d="M132.558,286.7v-4.619h.907l1.891,3.085v-3.085h.867V286.7h-.936l-1.863-3.012V286.7Z" transform="translate(-132.558 -282.077)" fill="#1a1311"/>
      <path id="路径_3098" data-name="路径 3098" d="M141.456,285.345l-.8-.145a1.253,1.253,0,0,1,.466-.718,1.707,1.707,0,0,1,.983-.233,2.129,2.129,0,0,1,.882.14.883.883,0,0,1,.408.356,1.836,1.836,0,0,1,.118.793l-.009,1.034a3.566,3.566,0,0,0,.042.651,1.9,1.9,0,0,0,.159.449h-.876c-.023-.058-.051-.146-.085-.262-.015-.052-.025-.087-.031-.1a1.59,1.59,0,0,1-.485.331,1.4,1.4,0,0,1-.552.11,1.137,1.137,0,0,1-.814-.281.93.93,0,0,1-.3-.709.949.949,0,0,1,.135-.505.887.887,0,0,1,.38-.341,3.006,3.006,0,0,1,.7-.206,4.831,4.831,0,0,0,.86-.217V285.4a.458.458,0,0,0-.126-.364.752.752,0,0,0-.476-.109.634.634,0,0,0-.368.093A.648.648,0,0,0,141.456,285.345Zm1.185.719q-.17.056-.539.136a1.631,1.631,0,0,0-.482.154.369.369,0,0,0-.173.312.433.433,0,0,0,.138.321.484.484,0,0,0,.353.136.766.766,0,0,0,.456-.157.559.559,0,0,0,.212-.293,1.78,1.78,0,0,0,.034-.432Z" transform="translate(-136.15 -283.052)" fill="#1a1311"/>
      <path id="路径_3099" data-name="路径 3099" d="M148.066,287.732l-1.349-3.346h.929l.631,1.708.182.571q.073-.217.091-.287.045-.141.095-.284l.637-1.708h.91l-1.33,3.346Z" transform="translate(-138.912 -283.113)" fill="#1a1311"/>
      <path id="路径_3100" data-name="路径 3100" d="M154.006,282.9v-.819h.885v.819Zm0,3.8V283.35h.885V286.7Z" transform="translate(-142.183 -282.077)" fill="#1a1311"/>
      <path id="路径_3101" data-name="路径 3101" d="M157.015,287.891l1.011.123a.346.346,0,0,0,.116.243.668.668,0,0,0,.4.094,1.032,1.032,0,0,0,.52-.1.432.432,0,0,0,.176-.224,1.354,1.354,0,0,0,.041-.406v-.488a1.2,1.2,0,0,1-1,.542,1.234,1.234,0,0,1-1.068-.571,1.94,1.94,0,0,1-.309-1.122,1.844,1.844,0,0,1,.405-1.285,1.307,1.307,0,0,1,1.007-.444,1.226,1.226,0,0,1,1.024.545v-.47h.828v3a3,3,0,0,1-.1.885,1.1,1.1,0,0,1-.274.46,1.219,1.219,0,0,1-.471.262,2.492,2.492,0,0,1-.746.094,1.927,1.927,0,0,1-1.207-.292.913.913,0,0,1-.356-.739C157.012,287.969,157.013,287.934,157.015,287.891Zm.79-1.963a1.2,1.2,0,0,0,.207.779.636.636,0,0,0,.509.247.7.7,0,0,0,.548-.254,1.106,1.106,0,0,0,.224-.751,1.173,1.173,0,0,0-.214-.772.68.68,0,0,0-.542-.252.652.652,0,0,0-.525.247A1.158,1.158,0,0,0,157.805,285.929Z" transform="translate(-143.481 -283.052)" fill="#1a1311"/>
      <path id="路径_3102" data-name="路径 3102" d="M164.882,285.345l-.8-.145a1.251,1.251,0,0,1,.467-.718,1.7,1.7,0,0,1,.983-.233,2.126,2.126,0,0,1,.882.14.883.883,0,0,1,.408.356,1.827,1.827,0,0,1,.118.793l-.009,1.034a3.617,3.617,0,0,0,.042.651,1.921,1.921,0,0,0,.159.449h-.876c-.023-.058-.052-.146-.085-.262-.014-.052-.025-.087-.031-.1a1.59,1.59,0,0,1-.485.331,1.4,1.4,0,0,1-.552.11,1.137,1.137,0,0,1-.814-.281.932.932,0,0,1-.3-.709.949.949,0,0,1,.135-.505.887.887,0,0,1,.38-.341,3.012,3.012,0,0,1,.7-.206,4.832,4.832,0,0,0,.86-.217V285.4a.46.46,0,0,0-.126-.364.755.755,0,0,0-.476-.109.635.635,0,0,0-.368.093A.648.648,0,0,0,164.882,285.345Zm1.185.719q-.17.056-.539.136a1.631,1.631,0,0,0-.482.154.371.371,0,0,0-.173.312.433.433,0,0,0,.139.321.483.483,0,0,0,.353.136.766.766,0,0,0,.456-.157.556.556,0,0,0,.212-.293,1.744,1.744,0,0,0,.035-.432Z" transform="translate(-146.663 -283.052)" fill="#1a1311"/>
      <path id="路径_3103" data-name="路径 3103" d="M172.158,283.424v.706h-.605v1.348a3.322,3.322,0,0,0,.018.477.193.193,0,0,0,.079.112.246.246,0,0,0,.149.044,1.14,1.14,0,0,0,.356-.085l.076.687a1.759,1.759,0,0,1-.7.132,1.111,1.111,0,0,1-.432-.08.63.63,0,0,1-.282-.208.818.818,0,0,1-.124-.345,4.224,4.224,0,0,1-.029-.624V284.13h-.406v-.706h.406v-.665l.889-.517v1.182Z" transform="translate(-149.477 -282.151)" fill="#1a1311"/>
      <path id="路径_3104" data-name="路径 3104" d="M174.448,285.951a1.808,1.808,0,0,1,.217-.854,1.491,1.491,0,0,1,.616-.63,1.822,1.822,0,0,1,.89-.218,1.67,1.67,0,0,1,1.245.493,1.7,1.7,0,0,1,.485,1.246,1.723,1.723,0,0,1-.49,1.259,1.657,1.657,0,0,1-1.234.5,1.948,1.948,0,0,1-.878-.208,1.428,1.428,0,0,1-.635-.61A2.032,2.032,0,0,1,174.448,285.951Zm.907.047a1.108,1.108,0,0,0,.236.763.773.773,0,0,0,1.164,0,1.124,1.124,0,0,0,.235-.769,1.1,1.1,0,0,0-.235-.756.773.773,0,0,0-1.164,0A1.108,1.108,0,0,0,175.355,286Z" transform="translate(-151.357 -283.052)" fill="#1a1311"/>
      <path id="路径_3105" data-name="路径 3105" d="M182.787,287.671H181.9v-3.346h.822v.476a1.426,1.426,0,0,1,.38-.445.7.7,0,0,1,.383-.107,1.123,1.123,0,0,1,.583.167l-.274.772a.777.777,0,0,0-.416-.146.489.489,0,0,0-.315.1.7.7,0,0,0-.2.37,5.233,5.233,0,0,0-.074,1.122Z" transform="translate(-154.703 -283.052)" fill="#1a1311"/>
    </g>
    <g id="组_713" data-name="组 713" transform="translate(127.359 258.285)">
      <path id="路径_3106" data-name="路径 3106" d="M192.447,284.35a2.941,2.941,0,0,1,.211-1.185,2.184,2.184,0,0,1,.43-.633,1.8,1.8,0,0,1,.6-.416,2.536,2.536,0,0,1,1-.182,2.168,2.168,0,0,1,1.634.633,2.831,2.831,0,0,1,0,3.512,2.429,2.429,0,0,1-3.265,0A2.386,2.386,0,0,1,192.447,284.35Zm.961-.031a1.732,1.732,0,0,0,.362,1.19,1.181,1.181,0,0,0,.921.405,1.17,1.17,0,0,0,.915-.4,1.768,1.768,0,0,0,.358-1.206,1.738,1.738,0,0,0-.348-1.185,1.29,1.29,0,0,0-1.854,0A1.746,1.746,0,0,0,193.408,284.319Z" transform="translate(-192.447 -281.934)" fill="#1a1311"/>
      <path id="路径_3107" data-name="路径 3107" d="M204.924,287.671h-.885v-1.708a2.626,2.626,0,0,0-.057-.7.5.5,0,0,0-.184-.247.528.528,0,0,0-.308-.088.706.706,0,0,0-.412.126.631.631,0,0,0-.251.334,2.882,2.882,0,0,0-.068.769v1.515h-.885v-3.346h.822v.492a1.372,1.372,0,0,1,1.638-.462.9.9,0,0,1,.367.27.971.971,0,0,1,.174.372,2.766,2.766,0,0,1,.049.6Z" transform="translate(-196.678 -282.973)" fill="#1a1311"/>
      <path id="路径_3108" data-name="路径 3108" d="M209.037,286.7v-4.619h.885V286.7Z" transform="translate(-199.892 -281.998)" fill="#1a1311"/>
      <path id="路径_3109" data-name="路径 3109" d="M212.289,282.9v-.819h.886v.819Zm0,3.8V283.35h.886V286.7Z" transform="translate(-201.352 -281.998)" fill="#1a1311"/>
      <path id="路径_3110" data-name="路径 3110" d="M218.581,287.671H217.7v-1.708a2.65,2.65,0,0,0-.057-.7.5.5,0,0,0-.184-.247.528.528,0,0,0-.308-.088.708.708,0,0,0-.413.126.633.633,0,0,0-.25.334,2.882,2.882,0,0,0-.068.769v1.515h-.885v-3.346h.822v.492a1.373,1.373,0,0,1,1.639-.462.9.9,0,0,1,.367.27.971.971,0,0,1,.174.372,2.766,2.766,0,0,1,.049.6Z" transform="translate(-202.807 -282.973)" fill="#1a1311"/>
      <path id="路径_3111" data-name="路径 3111" d="M224.421,286.606l.883.148a1.449,1.449,0,0,1-.537.739,1.578,1.578,0,0,1-.919.254,1.5,1.5,0,0,1-1.292-.57,1.917,1.917,0,0,1-.331-1.154,1.846,1.846,0,0,1,.435-1.3,1.432,1.432,0,0,1,1.1-.471,1.483,1.483,0,0,1,1.178.493,2.184,2.184,0,0,1,.413,1.511h-2.219a.9.9,0,0,0,.214.613.671.671,0,0,0,.51.219.542.542,0,0,0,.349-.114A.7.7,0,0,0,224.421,286.606Zm.05-.9a.851.851,0,0,0-.2-.584.639.639,0,0,0-.939.011.818.818,0,0,0-.186.573Z" transform="translate(-205.811 -282.973)" fill="#1a1311"/>
    </g>
    <g id="组_714" data-name="组 714" transform="translate(150.396 258.364)">
      <path id="路径_3112" data-name="路径 3112" d="M234.239,286.7v-4.619h.933V286.7Z" transform="translate(-234.239 -282.077)" fill="#1a1311"/>
      <path id="路径_3113" data-name="路径 3113" d="M240.57,287.671h-.885v-1.708a2.626,2.626,0,0,0-.057-.7.5.5,0,0,0-.184-.247.528.528,0,0,0-.308-.088.706.706,0,0,0-.412.126.631.631,0,0,0-.251.334,2.883,2.883,0,0,0-.068.769v1.515h-.885v-3.346h.822v.492a1.372,1.372,0,0,1,1.638-.462.9.9,0,0,1,.367.27.971.971,0,0,1,.174.372,2.766,2.766,0,0,1,.049.6Z" transform="translate(-235.711 -283.052)" fill="#1a1311"/>
      <path id="路径_3114" data-name="路径 3114" d="M244.117,286.716l.889-.136a.65.65,0,0,0,.23.392.776.776,0,0,0,.485.134.879.879,0,0,0,.517-.126.28.28,0,0,0,.116-.236.231.231,0,0,0-.063-.167.7.7,0,0,0-.3-.117,4.785,4.785,0,0,1-1.358-.432.862.862,0,0,1-.4-.754.927.927,0,0,1,.343-.731,1.6,1.6,0,0,1,1.065-.3,1.855,1.855,0,0,1,1.021.224,1.145,1.145,0,0,1,.46.661l-.835.154a.518.518,0,0,0-.2-.3.742.742,0,0,0-.427-.1.96.96,0,0,0-.5.1.21.21,0,0,0-.1.18.2.2,0,0,0,.088.16,3.305,3.305,0,0,0,.827.249,2.466,2.466,0,0,1,.988.394.818.818,0,0,1,.278.659,1.011,1.011,0,0,1-.385.791,1.7,1.7,0,0,1-1.138.331,1.863,1.863,0,0,1-1.082-.277A1.276,1.276,0,0,1,244.117,286.716Z" transform="translate(-238.672 -283.052)" fill="#1a1311"/>
      <path id="路径_3115" data-name="路径 3115" d="M253.381,287.732v-.5a1.286,1.286,0,0,1-.48.422,1.345,1.345,0,0,1-.629.154,1.23,1.23,0,0,1-.6-.148.874.874,0,0,1-.387-.416,1.855,1.855,0,0,1-.12-.74v-2.118h.885v1.538a4.278,4.278,0,0,0,.049.865.473.473,0,0,0,.178.252.546.546,0,0,0,.328.093.694.694,0,0,0,.406-.125.629.629,0,0,0,.246-.309,3.587,3.587,0,0,0,.066-.9v-1.412h.886v3.346Z" transform="translate(-241.833 -283.113)" fill="#1a1311"/>
      <path id="路径_3116" data-name="路径 3116" d="M259.162,287.671h-.885v-3.346h.822v.476a1.418,1.418,0,0,1,.38-.445.7.7,0,0,1,.383-.107,1.122,1.122,0,0,1,.583.167l-.274.772a.775.775,0,0,0-.416-.146.491.491,0,0,0-.315.1.7.7,0,0,0-.2.37,5.287,5.287,0,0,0-.074,1.122Z" transform="translate(-245.027 -283.052)" fill="#1a1311"/>
      <path id="路径_3117" data-name="路径 3117" d="M263.374,285.345l-.8-.145a1.253,1.253,0,0,1,.466-.718,1.707,1.707,0,0,1,.983-.233,2.129,2.129,0,0,1,.883.14.883.883,0,0,1,.408.356,1.836,1.836,0,0,1,.118.793l-.009,1.034a3.568,3.568,0,0,0,.042.651,1.9,1.9,0,0,0,.159.449h-.876c-.023-.058-.051-.146-.085-.262-.015-.052-.025-.087-.031-.1a1.59,1.59,0,0,1-.485.331,1.4,1.4,0,0,1-.552.11,1.137,1.137,0,0,1-.814-.281.93.93,0,0,1-.3-.709.949.949,0,0,1,.135-.505.887.887,0,0,1,.38-.341,3,3,0,0,1,.7-.206,4.831,4.831,0,0,0,.86-.217V285.4a.458.458,0,0,0-.126-.364.752.752,0,0,0-.476-.109.634.634,0,0,0-.368.093A.648.648,0,0,0,263.374,285.345Zm1.185.719c-.114.037-.293.083-.539.136a1.631,1.631,0,0,0-.482.154.37.37,0,0,0-.174.312.433.433,0,0,0,.139.321.484.484,0,0,0,.353.136.768.768,0,0,0,.456-.157.555.555,0,0,0,.211-.293,1.743,1.743,0,0,0,.035-.432Z" transform="translate(-246.913 -283.052)" fill="#1a1311"/>
      <path id="路径_3118" data-name="路径 3118" d="M272.451,287.671h-.885v-1.708a2.653,2.653,0,0,0-.057-.7.5.5,0,0,0-.185-.247.525.525,0,0,0-.308-.088.708.708,0,0,0-.412.126.634.634,0,0,0-.251.334,2.882,2.882,0,0,0-.068.769v1.515H269.4v-3.346h.822v.492a1.373,1.373,0,0,1,1.639-.462.9.9,0,0,1,.367.27.978.978,0,0,1,.173.372,2.762,2.762,0,0,1,.049.6Z" transform="translate(-250.019 -283.052)" fill="#1a1311"/>
      <path id="路径_3119" data-name="路径 3119" d="M279.322,285.314l-.873.158a.632.632,0,0,0-.2-.394.6.6,0,0,0-.405-.132.66.66,0,0,0-.528.229,1.167,1.167,0,0,0-.2.764,1.35,1.35,0,0,0,.2.841.656.656,0,0,0,.537.246.6.6,0,0,0,.413-.143.86.86,0,0,0,.227-.493l.869.148a1.544,1.544,0,0,1-.52.9,1.611,1.611,0,0,1-1.03.305,1.533,1.533,0,0,1-1.171-.463,2.111,2.111,0,0,1,0-2.573,1.556,1.556,0,0,1,1.185-.461,1.618,1.618,0,0,1,.972.263A1.453,1.453,0,0,1,279.322,285.314Z" transform="translate(-253.074 -283.052)" fill="#1a1311"/>
      <path id="路径_3120" data-name="路径 3120" d="M284.8,286.606l.883.148a1.449,1.449,0,0,1-.537.739,1.577,1.577,0,0,1-.918.254,1.5,1.5,0,0,1-1.292-.57,1.917,1.917,0,0,1-.331-1.154,1.846,1.846,0,0,1,.435-1.3,1.432,1.432,0,0,1,1.1-.471,1.485,1.485,0,0,1,1.179.493,2.182,2.182,0,0,1,.413,1.511h-2.219a.9.9,0,0,0,.214.613.672.672,0,0,0,.51.219.543.543,0,0,0,.35-.114A.7.7,0,0,0,284.8,286.606Zm.051-.9a.856.856,0,0,0-.2-.584.639.639,0,0,0-.939.011.817.817,0,0,0-.186.573Z" transform="translate(-255.945 -283.052)" fill="#1a1311"/>
    </g>
  </g>
</svg>
